<?xml version="1.0" encoding="UTF-8"?>
<!DOCTYPE svg PUBLIC "-//W3C//DTD SVG 1.1//EN" "http://www.w3.org/Graphics/SVG/1.1/DTD/svg11.dtd">
<!-- Creator: CorelDRAW X6 -->
<svg xmlns="http://www.w3.org/2000/svg" xml:space="preserve" width="105mm" height="148mm" version="1.1" style="shape-rendering:geometricPrecision; text-rendering:geometricPrecision; image-rendering:optimizeQuality; fill-rule:evenodd; clip-rule:evenodd"
viewBox="0 0 10500 14800"
 xmlns:xlink="http://www.w3.org/1999/xlink">
 <defs>
  <style type="text/css">
   <![CDATA[
    .str0 {stroke:#1F1B20;stroke-width:44.99}
    .str1 {stroke:#1F1B20;stroke-width:45}
    .fil0 {fill:none}
    .fil2 {fill:black}
    .fil1 {fill:#1F1B20;fill-rule:nonzero}
   ]]>
  </style>
 </defs>
 <g id="Слой_x0020_1">
  <metadata id="CorelCorpID_0Corel-Layer"/>
  <path class="fil0 str0" d="M3886 1713l646 0c55,0 100,45 100,100l0 647c0,55 -45,100 -100,100l-646 0c-55,0 -100,-45 -100,-100l0 -647c0,-55 45,-100 100,-100z"/>
  <g id="_717774448">
   <polygon class="fil1" points="4333,2102 4499,2102 4499,2146 4333,2146 "/>
   <path class="fil1" d="M4327 2430l-330 0c-28,0 -53,-11 -71,-30 -18,-18 -30,-43 -30,-70l0 -301 44 0 0 301c0,15 7,29 17,39 10,10 24,17 40,17l330 0 0 44z"/>
   <path class="fil1" d="M3896 2118l0 -94c0,-28 12,-53 30,-71l0 0c18,-18 43,-29 71,-29l140 0 0 44 -140 0c-16,0 -30,6 -40,16l0 0c-10,10 -17,24 -17,40l0 94 -44 0z"/>
   <path class="fil1" d="M4426 2430l-231 0 0 -44 231 0c15,0 30,-6 40,-17l0 0c10,-10 16,-24 16,-39l0 -365c0,-15 -6,-29 -16,-40 -11,-10 -25,-16 -40,-16l-231 0 0 -44 231 0c28,0 53,11 71,29 18,18 29,44 29,71l0 365c0,27 -11,52 -29,70l0 0 0 0c-18,19 -44,30 -71,30z"/>
   <polygon class="fil1" points="4067,1968 4195,1865 4265,1865 4137,1968 "/>
   <polygon class="fil1" points="3913,2102 4084,2102 4084,2146 3913,2146 "/>
   <path class="fil0 str1" d="M4207 2043c77,0 139,62 139,139 0,76 -62,138 -139,138 -77,0 -139,-62 -139,-138 0,-77 62,-139 139,-139z"/>
   <path class="fil2" d="M4012 1854l75 0c12,0 22,10 22,22l0 0c0,12 -10,22 -22,22l-75 0c-12,0 -22,-10 -22,-22l0 0c0,-12 10,-22 22,-22z"/>
  </g>
 </g>
</svg>
