<?xml version="1.0" encoding="UTF-8"?>
<!DOCTYPE svg PUBLIC "-//W3C//DTD SVG 1.1//EN" "http://www.w3.org/Graphics/SVG/1.1/DTD/svg11.dtd">
<!-- Creator: CorelDRAW X6 -->
<svg xmlns="http://www.w3.org/2000/svg" xml:space="preserve" width="105mm" height="148mm" version="1.1" style="shape-rendering:geometricPrecision; text-rendering:geometricPrecision; image-rendering:optimizeQuality; fill-rule:evenodd; clip-rule:evenodd"
viewBox="0 0 10500 14800"
 xmlns:xlink="http://www.w3.org/1999/xlink">
 <defs>
  <style type="text/css">
   <![CDATA[
    .str0 {stroke:#1F1B20;stroke-width:44.99}
    .fil0 {fill:none}
    .fil1 {fill:black}
   ]]>
  </style>
 </defs>
 <g id="Слой_x0020_1">
  <metadata id="CorelCorpID_0Corel-Layer"/>
  <path class="fil0 str0" d="M3886 1713l646 0c55,0 100,45 100,100l0 647c0,55 -45,100 -100,100l-646 0c-55,0 -100,-45 -100,-100l0 -647c0,-55 45,-100 100,-100z"/>
  <path class="fil1" d="M4209 2116c43,-135 248,26 0,186 -248,-160 -45,-321 0,-186z"/>
  <path class="fil1" d="M4239 1856c-8,-8 -19,-13 -30,-13 -11,0 -22,5 -30,13l-283 282c-4,4 -6,10 -6,15 0,12 10,22 21,22 6,0 11,-3 15,-7l28 -27 0 225c0,35 28,64 64,64l382 0c35,0 64,-29 64,-64l0 -225 27 27c4,4 10,7 15,7 12,0 22,-10 22,-22 0,-5 -2,-11 -6,-15l-101 -100 0 -140c0,-11 -9,-21 -21,-21l-42 0c-12,0 -22,10 -22,21l0 55 -97 -97zm182 242l0 268c0,12 -9,21 -21,21l-382 0c-12,0 -22,-9 -22,-21l0 -268 213 -212 212 212z"/>
 </g>
</svg>
