<?xml version="1.0" encoding="UTF-8"?>
<!DOCTYPE svg PUBLIC "-//W3C//DTD SVG 1.1//EN" "http://www.w3.org/Graphics/SVG/1.1/DTD/svg11.dtd">
<!-- Creator: CorelDRAW X6 -->
<svg xmlns="http://www.w3.org/2000/svg" xml:space="preserve" width="105mm" height="148mm" version="1.1" style="shape-rendering:geometricPrecision; text-rendering:geometricPrecision; image-rendering:optimizeQuality; fill-rule:evenodd; clip-rule:evenodd"
viewBox="0 0 10500 14800"
 xmlns:xlink="http://www.w3.org/1999/xlink">
 <defs>
  <style type="text/css">
   <![CDATA[
    .str0 {stroke:#1F1B20;stroke-width:44.99}
    .str1 {stroke:#2B2A29;stroke-width:45}
    .fil0 {fill:none}
    .fil1 {fill:#2B2A29;fill-rule:nonzero}
   ]]>
  </style>
 </defs>
 <g id="Слой_x0020_1">
  <metadata id="CorelCorpID_0Corel-Layer"/>
  <path class="fil0 str0" d="M3886 1713l646 0c55,0 100,45 100,100l0 647c0,55 -45,100 -100,100l-646 0c-55,0 -100,-45 -100,-100l0 -647c0,-55 45,-100 100,-100z"/>
  <g id="_723775184">
   <path class="fil1" d="M4208 2432c-97,-94 -159,-188 -189,-271 -21,-60 -26,-114 -15,-161 11,-48 39,-88 81,-115 33,-21 74,-34 123,-38l0 48c-39,4 -72,15 -97,31 -32,20 -52,49 -61,85 -8,38 -4,83 14,134 24,67 71,142 144,219l0 68z"/>
   <path class="fil1" d="M4208 2432c98,-94 160,-188 189,-271 22,-60 26,-114 16,-161 -12,-48 -39,-88 -82,-115 -32,-21 -74,-34 -123,-38l0 48c40,4 72,15 98,31 31,20 52,49 60,85 9,38 5,83 -13,134 -24,67 -72,142 -145,219l0 68z"/>
   <circle class="fil0 str1" cx="4209" cy="2077" r="60"/>
  </g>
 </g>
</svg>
