<?xml version="1.0" encoding="UTF-8"?>
<!DOCTYPE svg PUBLIC "-//W3C//DTD SVG 1.1//EN" "http://www.w3.org/Graphics/SVG/1.1/DTD/svg11.dtd">
<!-- Creator: CorelDRAW X6 -->
<svg xmlns="http://www.w3.org/2000/svg" xml:space="preserve" width="105mm" height="148mm" version="1.1" style="shape-rendering:geometricPrecision; text-rendering:geometricPrecision; image-rendering:optimizeQuality; fill-rule:evenodd; clip-rule:evenodd"
viewBox="0 0 10500 14800"
 xmlns:xlink="http://www.w3.org/1999/xlink">
 <defs>
  <style type="text/css">
   <![CDATA[
    .str0 {stroke:#1F1B20;stroke-width:44.99}
    .str1 {stroke:#1F1B20;stroke-width:45}
    .fil0 {fill:none}
    .fil2 {fill:black}
    .fil1 {fill:#2B2A29;fill-rule:nonzero}
   ]]>
  </style>
 </defs>
 <g id="Слой_x0020_1">
  <metadata id="CorelCorpID_0Corel-Layer"/>
  <path class="fil0 str0" d="M3886 1713l646 0c55,0 100,45 100,100l0 647c0,55 -45,100 -100,100l-646 0c-55,0 -100,-45 -100,-100l0 -647c0,-55 45,-100 100,-100z"/>
  <polygon class="fil1" points="4085,1846 4274,1846 4274,1891 4085,1891 "/>
  <path class="fil0 str1" d="M4273 1869c199,0 214,321 -1,324"/>
  <rect class="fil2" x="3975" y="2300" width="400.19" height="44.98" rx="100" ry="100"/>
  <rect class="fil2" x="3975" y="2170" width="320.43" height="44.98" rx="80" ry="100"/>
  <rect class="fil2" x="4057" y="1847" width="258.92" height="44.98" rx="65" ry="100"/>
  <rect class="fil2" transform="matrix(2.64845E-014 -1.46845 1 3.88913E-014 4056.67 2433.81)" width="400.19" height="44.98" rx="100" ry="100"/>
 </g>
</svg>
