<?xml version="1.0" encoding="UTF-8"?>
<!DOCTYPE svg PUBLIC "-//W3C//DTD SVG 1.1//EN" "http://www.w3.org/Graphics/SVG/1.1/DTD/svg11.dtd">
<!-- Creator: CorelDRAW X6 -->
<svg xmlns="http://www.w3.org/2000/svg" xml:space="preserve" width="105mm" height="148mm" version="1.1" style="shape-rendering:geometricPrecision; text-rendering:geometricPrecision; image-rendering:optimizeQuality; fill-rule:evenodd; clip-rule:evenodd"
viewBox="0 0 10500 14800"
 xmlns:xlink="http://www.w3.org/1999/xlink">
 <defs>
  <style type="text/css">
   <![CDATA[
    .str0 {stroke:#1F1B20;stroke-width:44.99}
    .str1 {stroke:#1F1B20;stroke-width:64.99}
    .fil0 {fill:none}
    .fil1 {fill:#1F1B20;fill-rule:nonzero}
   ]]>
  </style>
 </defs>
 <g id="Слой_x0020_1">
  <metadata id="CorelCorpID_0Corel-Layer"/>
  <path class="fil0 str0" d="M3886 1713l646 0c55,0 100,45 100,100l0 647c0,55 -45,100 -100,100l-646 0c-55,0 -100,-45 -100,-100l0 -647c0,-55 45,-100 100,-100z"/>
  <path class="fil0 str1" d="M4035 1875c56,0 101,45 101,101 0,55 -45,100 -101,100 -55,0 -100,-45 -100,-100 0,-56 45,-101 100,-101z"/>
  <path class="fil0 str1" d="M4035 2203c56,0 101,46 101,101 0,56 -45,101 -101,101 -55,0 -100,-45 -100,-101 0,-55 45,-101 100,-101z"/>
  <polygon class="fil1" points="4137,2012 4262,2136 4209,2189 4084,2065 "/>
  <polygon class="fil1" points="4081,2211 4446,1846 4523,1846 4523,1875 4134,2264 "/>
  <polygon class="fil1" points="4610,2347 4618,2355 4610,2363 "/>
  <polygon class="fil1" points="4285,2160 4523,2397 4523,2428 4447,2428 4232,2213 "/>
 </g>
</svg>
